<!-- Generated by IcoMoon.io -->
<svg version="1.1" xmlns="http://www.w3.org/2000/svg" width="56" height="64" viewBox="0 0 56 64">
<title>uniswap</title>
<path d="M20.706 23.849c-0.12 0.461-0.328 0.895-0.614 1.275-0.532 0.694-1.237 1.235-2.043 1.57-0.725 0.314-1.493 0.517-2.278 0.602-0.161 0.021-0.329 0.033-0.491 0.046l-0.026 0.002c-0.497 0.019-0.975 0.197-1.364 0.509s-0.668 0.74-0.797 1.223c-0.059 0.24-0.103 0.484-0.131 0.73-0.045 0.371-0.068 0.75-0.094 1.16-0.018 0.294-0.037 0.605-0.066 0.94-0.169 1.363-0.561 2.689-1.162 3.923-0.123 0.259-0.248 0.511-0.371 0.758-0.658 1.324-1.253 2.52-1.082 4.122 0.134 1.234 0.763 2.061 1.599 2.914 0.397 0.408 0.924 0.757 1.47 1.119 1.53 1.013 3.217 2.13 2.661 4.943-0.455 2.28-4.218 4.672-9.507 5.508 0.513-0.078-0.617-2.015-0.742-2.23l-0.008-0.013c-0.146-0.229-0.295-0.455-0.444-0.681-0.43-0.652-0.859-1.3-1.194-2.019-0.884-1.877-1.293-4.049-0.931-6.106 0.328-1.861 1.553-3.348 2.733-4.78 0.192-0.233 0.383-0.465 0.569-0.697 1.578-1.968 3.233-4.547 3.599-7.101 0.031-0.222 0.059-0.464 0.088-0.719 0.052-0.456 0.108-0.952 0.197-1.446 0.131-0.854 0.398-1.681 0.789-2.451 0.267-0.505 0.618-0.959 1.039-1.344 0.219-0.204 0.364-0.477 0.411-0.774s-0.007-0.601-0.152-0.863l-8.431-15.233 12.11 15.012c0.138 0.174 0.312 0.315 0.511 0.414s0.416 0.152 0.637 0.157c0.221 0.005 0.441-0.039 0.643-0.13s0.383-0.224 0.528-0.392c0.153-0.18 0.24-0.407 0.246-0.644s-0.070-0.468-0.214-0.655c-0.563-0.723-1.149-1.455-1.732-2.185-0.236-0.295-0.472-0.59-0.705-0.883l-3.047-3.789-6.117-7.565-6.792-8.076 7.576 7.399 6.511 7.231 3.248 3.624c0.298 0.338 0.597 0.672 0.895 1.007 0.779 0.874 1.558 1.747 2.338 2.674l0.177 0.216 0.039 0.336c0.052 0.455 0.026 0.916-0.078 1.362zM51.85 28.94l0.013 0.020c-0.002-1.615-0.998-4.28-3.013-6.844l-0.047-0.063c-0.621-0.771-1.297-1.494-2.024-2.165-0.136-0.132-0.282-0.262-0.431-0.392-0.931-0.816-1.949-1.526-3.035-2.117l-0.078-0.039c-3.412-1.866-7.851-2.827-13.326-1.745-0.735-0.897-1.527-1.745-2.371-2.539-1.292-1.237-2.813-2.207-4.476-2.856-1.649-0.606-3.414-0.823-5.16-0.632 1.682 0.152 3.321 0.622 4.83 1.386 1.457 0.784 2.769 1.814 3.879 3.044 1.125 1.256 2.183 2.571 3.168 3.94l0.247 0.323c0.964 1.261 1.946 2.546 3.169 3.689 0.673 0.636 1.424 1.184 2.235 1.63 0.215 0.11 0.433 0.214 0.647 0.305s0.414 0.175 0.629 0.253 0.847 0.297 1.278 0.42c1.724 0.494 3.489 0.671 5.213 0.766 0.24 0.013 0.479 0.024 0.718 0.036 0.616 0.031 1.227 0.061 1.828 0.104 0.824 0.049 1.641 0.178 2.44 0.385 1.2 0.314 2.257 1.033 2.994 2.035 0.25 0.334 0.475 0.686 0.672 1.054zM46.803 19.89c-0.087-0.080-0.175-0.16-0.263-0.239-0.056-0.051-0.113-0.102-0.168-0.153 0.043 0.039 0.086 0.079 0.129 0.119 0.101 0.094 0.202 0.188 0.302 0.273zM44.648 35.835c-5.545-2.26-11.344-4.624-10.481-11.26 1.851 1.985 4.757 2.402 7.917 2.855 2.867 0.411 5.944 0.852 8.632 2.521 6.345 3.936 5.418 11.583 3.263 14.398 0.194-4.631-4.471-6.532-9.332-8.514zM22.311 32.514c1.463-0.141 4.582-0.905 3.188-3.371-0.3-0.502-0.735-0.908-1.254-1.173s-1.103-0.377-1.683-0.323c-0.589 0.064-1.144 0.307-1.59 0.699s-0.762 0.911-0.904 1.488c-0.433 1.613 0.026 2.897 2.243 2.681zM21.89 13.003c-0.918-1.065-2.343-1.624-3.739-1.827-0.052 0.349-0.085 0.701-0.099 1.054-0.063 2.907 0.965 6.101 2.955 8.32 0.636 0.717 1.404 1.305 2.261 1.732 0.496 0.242 1.81 0.844 2.297 0.303 0.037-0.050 0.060-0.108 0.068-0.17s-0.002-0.124-0.027-0.181c-0.081-0.232-0.237-0.442-0.391-0.651-0.11-0.148-0.219-0.295-0.3-0.449-0.082-0.155-0.171-0.306-0.259-0.457-0.165-0.284-0.33-0.567-0.457-0.875-0.334-0.806-0.508-1.663-0.681-2.518-0.035-0.171-0.069-0.343-0.105-0.513-0.265-1.318-0.603-2.704-1.522-3.769zM41.505 36.197c-1.424 3.993 0.873 7.365 3.157 10.717 2.554 3.75 5.092 7.475 2.384 12.015 5.261-2.182 7.759-8.775 5.575-14.005-1.376-3.309-4.691-5.102-7.769-6.767-1.194-0.646-2.353-1.272-3.348-1.961zM26.111 45.727c-0.953 0.391-1.852 0.904-2.675 1.526 1.87-0.681 3.832-1.070 5.819-1.154 0.36-0.021 0.723-0.038 1.088-0.055 0.632-0.029 1.274-0.059 1.929-0.114 1.074-0.073 2.133-0.292 3.149-0.65 1.064-0.374 2.033-0.98 2.836-1.775 0.812-0.821 1.381-1.851 1.644-2.977 0.232-1.064 0.199-2.168-0.095-3.216s-0.841-2.007-1.593-2.792c0.362 0.924 0.585 1.896 0.662 2.886 0.066 0.921-0.059 1.846-0.366 2.717-0.3 0.825-0.79 1.567-1.431 2.165-0.662 0.604-1.428 1.081-2.261 1.407-1.157 0.468-2.466 0.66-3.83 0.86-0.622 0.091-1.255 0.184-1.89 0.305-1.022 0.188-2.023 0.478-2.987 0.866zM42.638 62.21l-0.091 0.074c-0.241 0.195-0.486 0.393-0.75 0.571-0.336 0.222-0.688 0.419-1.054 0.589-0.761 0.373-1.597 0.563-2.444 0.556-2.293-0.043-3.914-1.758-4.862-3.696-0.249-0.508-0.468-1.031-0.687-1.555-0.351-0.838-0.701-1.676-1.174-2.45-1.097-1.799-2.974-3.247-5.172-2.979-0.897 0.113-1.737 0.517-2.235 1.299-1.31 2.042 0.571 4.902 2.97 4.497 0.204-0.031 0.404-0.086 0.595-0.164 0.191-0.082 0.368-0.19 0.528-0.323 0.335-0.28 0.588-0.647 0.731-1.061 0.158-0.432 0.193-0.899 0.101-1.349-0.098-0.471-0.375-0.884-0.772-1.154 0.461 0.217 0.82 0.605 1.002 1.082 0.189 0.492 0.237 1.026 0.14 1.544-0.094 0.539-0.331 1.043-0.685 1.459-0.188 0.214-0.406 0.4-0.646 0.552-0.238 0.15-0.494 0.272-0.761 0.362-0.541 0.186-1.118 0.246-1.685 0.175-0.797-0.114-1.549-0.442-2.177-0.948-0.116-0.092-0.227-0.188-0.335-0.288-0.427-0.37-0.815-0.784-1.156-1.236-0.153-0.17-0.309-0.337-0.472-0.498-0.768-0.81-1.675-1.475-2.677-1.964-0.691-0.305-1.414-0.53-2.155-0.671-0.373-0.078-0.75-0.134-1.127-0.182-0.041-0.004-0.12-0.018-0.218-0.035-0.315-0.055-0.828-0.144-0.918-0.060 1.166-1.078 2.436-2.035 3.793-2.858 1.393-0.83 2.889-1.473 4.448-1.912 1.617-0.457 3.309-0.588 4.976-0.383 0.858 0.104 1.699 0.322 2.5 0.649 0.839 0.337 1.613 0.817 2.289 1.42 0.668 0.632 1.208 1.389 1.59 2.228 0.345 0.785 0.602 1.607 0.767 2.449 0.088 0.453 0.155 0.951 0.224 1.467 0.314 2.349 0.677 5.059 3.369 5.531 0.171 0.033 0.344 0.058 0.517 0.074l0.537 0.013c0.369-0.026 0.736-0.079 1.097-0.158 0.749-0.177 1.479-0.427 2.179-0.747l-0.101 0.081zM22.161 57.925c0.064 0.074 0.13 0.147 0.196 0.22-0.027-0.030-0.054-0.061-0.081-0.091-0.038-0.043-0.076-0.086-0.115-0.129z"></path>
</svg>
